<svg xmlns="http://www.w3.org/2000/svg" viewBox="0 0 508.24 52.67"><defs><style>.cls-1{fill:#5c56a1;}</style></defs><title>Ativo 3</title><g id="Camada_2" data-name="Camada 2"><g id="Camada_1-2" data-name="Camada 1"><path class="cls-1" d="M178.51,52.67q-5.13,0-7.36-3.58t-.32-8.67l10.59-28.14a18.75,18.75,0,0,1,6.89-8.69A17.19,17.19,0,0,1,198.4,0c3.44,0,5.91,1.2,7.39,3.61s1.58,5.29.29,8.67l-2.22,5.86H195.8l2.27-6A3.45,3.45,0,0,0,198,9a3,3,0,0,0-2.7-1.31A6.18,6.18,0,0,0,191.61,9a6.89,6.89,0,0,0-2.49,3.17L178.48,40.33a3.46,3.46,0,0,0,.11,3.16,2.88,2.88,0,0,0,2.64,1.29,6.23,6.23,0,0,0,3.66-1.29,6.85,6.85,0,0,0,2.51-3.16l2.67-7.07h8.05l-2.71,7.16a19,19,0,0,1-6.91,8.69A17,17,0,0,1,178.51,52.67Z"/><path class="cls-1" d="M229.31,0q5.16,0,7.4,3.6t.28,8.71l-10.75,28a19.17,19.17,0,0,1-7,8.72,17.16,17.16,0,0,1-10.08,3.59q-5.1,0-7.29-3.61t-.26-8.7l10.66-28a19,19,0,0,1,6.94-8.72A17.19,17.19,0,0,1,229.31,0Zm-.4,12.16a3.4,3.4,0,0,0-.08-3.14,2.93,2.93,0,0,0-2.68-1.28,6.27,6.27,0,0,0-3.64,1.28A6.84,6.84,0,0,0,220,12.19L209.27,40.31a3.38,3.38,0,0,0,.12,3.12,2.89,2.89,0,0,0,2.65,1.3,6.08,6.08,0,0,0,3.64-1.3,6.86,6.86,0,0,0,2.48-3.12Z"/><path class="cls-1" d="M257.07.65l-3,34.5L267.39.65h7.81L255.26,52H247l2-32.9L236.3,52h-7.75L248.31.65Z"/><path class="cls-1" d="M291.34,39.74a19.47,19.47,0,0,1-7,8.68,17,17,0,0,1-10,3.6H262.19l20-51.37h12.26q5.1,0,7.26,3.6t.18,8.65Zm-18.42,4.62h4.67A6.05,6.05,0,0,0,281.23,43a7.21,7.21,0,0,0,2.49-3.14L294.24,13a3.44,3.44,0,0,0-.07-3.14,2.81,2.81,0,0,0-2.6-1.31h-4.68Z"/><path class="cls-1" d="M323.53,39.26a22.68,22.68,0,0,1-6.44,9.18,16.52,16.52,0,0,1-6.76,3.64,16.84,16.84,0,0,1-4.54.59q-4.57,0-6.66-2.25a7.89,7.89,0,0,1-2-5,19,19,0,0,1,1.18-7.31l7.57-.51q-1.26,4.49-.16,6.48a2.58,2.58,0,0,0,2.62,1.44,7.73,7.73,0,0,0,5-2.48,9.6,9.6,0,0,0,2.14-3.41,7.34,7.34,0,0,0-.38-6.39c-1-1.45-2.43-3.62-4.35-6.51A17.09,17.09,0,0,1,308,20a14.68,14.68,0,0,1,1.11-7.22A20.65,20.65,0,0,1,318,2.2,16,16,0,0,1,326.13,0a9.8,9.8,0,0,1,6.41,1.86,6.19,6.19,0,0,1,2.12,4,13.38,13.38,0,0,1-.62,5.93l-8,1.35c.62-2.1.66-3.74.12-4.9-.37-.86-1.23-1.29-2.57-1.29a5.61,5.61,0,0,0-4,1.88,11.06,11.06,0,0,0-2.39,3.78,9,9,0,0,0,.22,7.18,15.36,15.36,0,0,0,2.16,3.27,28.56,28.56,0,0,1,2.34,3.15,16.38,16.38,0,0,1,2.2,5.66,15.21,15.21,0,0,1,.22,2.42A13.94,13.94,0,0,1,323.53,39.26Z"/><path class="cls-1" d="M353.3,8.82q3.43,0,4.88,2.4t.09,5.8l-7.48,18.66a13,13,0,0,1-4.73,5.8,11.53,11.53,0,0,1-6.75,2.39,5.12,5.12,0,0,1-4.81-2.4q-1.42-2.4-.07-5.79L341.85,17a12.84,12.84,0,0,1,4.72-5.8A11.54,11.54,0,0,1,353.3,8.82Zm-.41,8.1a2.25,2.25,0,0,0,0-2.09,1.9,1.9,0,0,0-1.76-.85,4.27,4.27,0,0,0-2.44.85A4.55,4.55,0,0,0,347,16.92l-7.47,18.72a2.25,2.25,0,0,0,.05,2.08,1.87,1.87,0,0,0,1.75.86,4.12,4.12,0,0,0,2.44-.86,4.71,4.71,0,0,0,1.68-2.08Z"/><path class="cls-1" d="M357.35,43.44H352.2l13.74-34.2h14.79l-2.09,5.15h-9.58l-3.78,9.38h7l-2.08,5.16h-7Z"/><path class="cls-1" d="M383.36,52.67q-5.13,0-7.26-3.58T376,40.42l11.41-28.14a19.66,19.66,0,0,1,7.16-8.69A17.61,17.61,0,0,1,404.8,0q5.16,0,7.28,3.61t0,8.67l-2.4,5.86h-8.06l2.45-6a3.44,3.44,0,0,0,0-3.17,2.85,2.85,0,0,0-2.65-1.31A6.32,6.32,0,0,0,397.75,9a7.13,7.13,0,0,0-2.59,3.17L383.69,40.33a3.46,3.46,0,0,0,0,3.16,2.78,2.78,0,0,0,2.6,1.29,6.39,6.39,0,0,0,3.7-1.29,7.2,7.2,0,0,0,2.6-3.16l2.88-7.07h8.05l-2.92,7.16a19.82,19.82,0,0,1-7.16,8.69A17.52,17.52,0,0,1,383.36,52.67Z"/><path class="cls-1" d="M435.71,0q5.16,0,7.29,3.6t0,8.71l-11.57,28a20,20,0,0,1-7.21,8.72,17.6,17.6,0,0,1-10.18,3.59q-5.1,0-7.19-3.61t0-8.7l11.48-28a19.79,19.79,0,0,1,7.2-8.72A17.59,17.59,0,0,1,435.71,0ZM435,12.19a3.39,3.39,0,0,0,0-3.14,2.82,2.82,0,0,0-2.63-1.28,6.47,6.47,0,0,0-3.69,1.28A7.12,7.12,0,0,0,426,12.19L414.49,40.31a3.32,3.32,0,0,0,0,3.12,2.8,2.8,0,0,0,2.62,1.3,6.23,6.23,0,0,0,3.67-1.3,7.15,7.15,0,0,0,2.57-3.12Z"/><path class="cls-1" d="M462.88,39.74a20.16,20.16,0,0,1-7.2,8.68A17.39,17.39,0,0,1,445.59,52H433.42L454.69.65h12.25c3.4,0,5.8,1.2,7.17,3.6s1.37,5.29,0,8.65Zm-18.53,4.62H449A6.2,6.2,0,0,0,452.69,43a7.49,7.49,0,0,0,2.57-3.14L466.44,13a3.43,3.43,0,0,0,0-3.14,2.72,2.72,0,0,0-2.56-1.31H459.2Z"/><path class="cls-1" d="M464.55,52,486,.65h22.21L505,8.39H490.58l-5.9,14.09h10.49l-3.26,7.74H481.43l-5.89,14.06h14.32L486.6,52Z"/><path class="cls-1" d="M75.92,34.07l1.87-5.16L70,28.8l-1.92,5.3h.2Z"/><polygon class="cls-1" points="73.74 18.48 81.59 18.44 83.42 13.4 75.57 13.43 73.74 18.48"/><path class="cls-1" d="M70.85,26.47l7.87-.11,1.86-5.13-7.82,0Z"/><path class="cls-1" d="M73.1,41.84l1.83-5-6.64,0-1.17,0-1.84,5.09,5,0Z"/><path class="cls-1" d="M70.26,10.62l14.15.06,3.64-10H82.6A17.92,17.92,0,0,1,77.37,5a16.12,16.12,0,0,1-6.08,2.1L70,10.63Z"/><polygon class="cls-1" points="70.26 44.65 64.28 44.63 61.6 52.02 69.41 52.02 72.08 44.65 70.26 44.65"/><path class="cls-1" d="M107.29,34.14,109.17,29l-7.71,0h-.35l-1.84,5,4.15,0Z"/><polygon class="cls-1" points="90.36 34.04 92.19 29.01 84.58 28.98 82.74 34.04 85.86 34.02 90.36 34.04"/><polygon class="cls-1" points="85.55 26.29 93.2 26.26 95.04 21.22 87.39 21.25 85.55 26.29"/><path class="cls-1" d="M110.19,26.26l1.9-5.18-8.1.09-1.85,5.06Z"/><path class="cls-1" d="M96,18.47l1.9-5.21-7.68.09-1.85,5.08Z"/><path class="cls-1" d="M99,10.83A7.26,7.26,0,0,1,100.81,9a6.08,6.08,0,0,1,3.62-1.31A2.89,2.89,0,0,1,107.57,11l8.11.17a9,9,0,0,0-.76-7.54Q112.66,0,107.49,0a16.92,16.92,0,0,0-10,3.58,18.86,18.86,0,0,0-6.14,7.16Z"/><path class="cls-1" d="M105,40.42l1.35-3.67-2.92,0-5.15,0L97,40.3A6.24,6.24,0,0,1,96.05,42q4.1,0,8.2.13C104.52,41.56,104.77,41,105,40.42Z"/><path class="cls-1" d="M92.34,44.53a5.27,5.27,0,0,1-1.46.22,3.62,3.62,0,0,1-1.19-.19l-1.87,0-8.22,0a8.23,8.23,0,0,0,1.24,4.47q2.26,3.59,7.4,3.59a16.84,16.84,0,0,0,10-3.56,20.11,20.11,0,0,0,4.71-4.73C99.38,44.45,95.86,44.49,92.34,44.53Z"/><path class="cls-1" d="M105,18.52l8,.09,2.08-5.67c-2.72.07-5.43.12-8.14.17Z"/><path class="cls-1" d="M88.07,40.3l1.27-3.46H81.72l-1.31,3.58c-.17.49-.32,1-.44,1.44l7.81,0A4.81,4.81,0,0,1,88.07,40.3Z"/><path class="cls-1" d="M129.9,36.36a7.32,7.32,0,0,1-.46,3.24,9.67,9.67,0,0,1-1.78,3.11q4,.13,8,.31a21.83,21.83,0,0,0,1.74-3.76,12.71,12.71,0,0,0,.62-3.11Z"/><path class="cls-1" d="M125.91,28.9c1.25,1.82,2.26,3.26,3,4.31a8.77,8.77,0,0,1,.58,1.3c2.87.06,5.73.14,8.6.22,0-.13,0-.26,0-.4a15.65,15.65,0,0,0-.28-2.42,15.4,15.4,0,0,0-1-3.17h-.19Q131.26,28.86,125.91,28.9Z"/><path class="cls-1" d="M130.46,12.48q-4.05.15-8.12.27a.14.14,0,0,0,0,.06,15.15,15.15,0,0,0-1,5.93c3,.05,6.09.12,9.13.19a8.83,8.83,0,0,1,0-6.28C130.41,12.59,130.44,12.53,130.46,12.48Z"/><path class="cls-1" d="M126.46,43.81a6.84,6.84,0,0,1-4,1.68,2.67,2.67,0,0,1-2.66-1.44,0,0,0,0,0,0,0q-4.29.12-8.58.21a11,11,0,0,0,0,1.16,8.08,8.08,0,0,0,2.09,5q2.16,2.25,6.72,2.25a16.72,16.72,0,0,0,4.53-.59,16.12,16.12,0,0,0,6.67-3.64,22.18,22.18,0,0,0,4.18-5C132.41,43.6,129.44,43.71,126.46,43.81Z"/><path class="cls-1" d="M124.17,26.36c3.81,0,7.63.08,11.44.16-.05-.09-.09-.18-.15-.27A31.56,31.56,0,0,0,133,23.1a20.51,20.51,0,0,1-1.75-2.37c-3.23.08-6.45.14-9.68.2A18.58,18.58,0,0,0,124.17,26.36Z"/><path class="cls-1" d="M130.83,11.62a10,10,0,0,1,1.86-2.75,5.44,5.44,0,0,1,4-1.88,2.57,2.57,0,0,1,2.61,1.29,6.07,6.07,0,0,1,.25,3.71l1,0-1,.05c-.07.35-.13.7-.24,1.09l8-1.35a13.56,13.56,0,0,0,.48-5.93,6.39,6.39,0,0,0-2.23-4A10,10,0,0,0,139,0,15.7,15.7,0,0,0,131,2.2a19.59,19.59,0,0,0-8,9.14C125.56,11.42,128.19,11.52,130.83,11.62Z"/><path class="cls-1" d="M119.75,37.57l-7.55.51a23.3,23.3,0,0,0-.93,4.17c2.66.06,5.32.12,8,.2A13.26,13.26,0,0,1,119.75,37.57Z"/><path class="cls-1" d="M153,35.58q-3.94.18-7.89.33l-6,16.11h22.06l2.9-7.74H149.73Z"/><path class="cls-1" d="M147.85,28.5,145.44,35l7.64.32,1.9-5.08h10.48l.88-2.34Q157.08,28.28,147.85,28.5Z"/><path class="cls-1" d="M158.22.65l-7.06,19,5,.22c-1.71.09-3.41.15-5.12.23l-2.5,6.72q9,.24,18,.62l1.85-4.93H157.87l5.26-14.09h14.39L180.43.65Z"/><path class="cls-1" d="M72.64,21.2l1-2.72-5.32,0c-5.85.08-11.71.11-17.56.24C39,19,27.31,19.25,15.6,19.84c11.71.59,23.42.89,35.13,1.1,5.85.13,11.71.16,17.56.24Z"/><path class="cls-1" d="M69.92,28.8l.83-2.33-4.42.07c-11.71.21-23.42.51-35.13,1.1,11.71.59,23.42.89,35.13,1.1C67.52,28.77,68.72,28.78,69.92,28.8Z"/><path class="cls-1" d="M68,34.1c-5.77.08-11.53.11-17.29.24-11.71.21-23.42.51-35.13,1.1,11.71.59,23.42.89,35.13,1.1,5.44.12,10.89.16,16.34.22Z"/><path class="cls-1" d="M65.25,41.85l-12.56,0C46.84,42,41,42,35.13,42.14c-11.71.21-23.42.51-35.13,1.1,11.71.58,23.42.89,35.13,1.1,5.85.13,11.71.16,17.56.24l11.56.05Z"/><path class="cls-1" d="M75.42,13.43l1-2.78-6.16,0-17.57.08c-5.85.08-11.71.11-17.56.24C23.42,11.15,11.71,11.45,0,12c11.71.59,23.42.89,35.13,1.1,5.85.13,11.71.16,17.56.24l17.57.08Z"/></g></g></svg>